<?xml version="1.0" standalone="no"?>
<!DOCTYPE svg PUBLIC "-//W3C//DTD SVG 20010904//EN"
 "http://www.w3.org/TR/2001/REC-SVG-20010904/DTD/svg10.dtd">
<svg version="1.0" xmlns="http://www.w3.org/2000/svg"
 width="700.000000pt" height="700.000000pt" viewBox="0 0 700.000000 700.000000"
 preserveAspectRatio="xMidYMid meet">
<metadata>
Created by potrace 1.11, written by Peter Selinger 2001-2013
</metadata>
<g transform="translate(0.000000,700.000000) scale(0.100000,-0.100000)"
fill="#000000" stroke="none">
<path d="M4194 6975 c-63 -14 -114 -45 -147 -88 -44 -59 -138 -272 -153 -352
-2 -11 -6 -31 -9 -45 -18 -78 -23 -148 -18 -255 6 -143 5 -234 -1 -284 -3 -20
-8 -64 -11 -98 -3 -34 -8 -72 -11 -85 -2 -13 -7 -70 -10 -128 -6 -96 -4 -111
19 -171 32 -86 69 -144 124 -196 44 -41 121 -85 135 -77 4 3 0 23 -8 46 -25
73 -7 85 59 39 l42 -29 45 30 c25 16 57 46 71 66 48 67 60 119 74 323 6 101
43 235 90 330 86 170 111 325 91 559 -9 104 -25 162 -67 241 -74 138 -190 202
-315 174z"/>
<path d="M2096 6518 c-104 -23 -150 -117 -151 -308 0 -148 10 -192 82 -355 91
-206 180 -497 198 -655 3 -25 8 -58 10 -75 3 -16 8 -50 11 -75 10 -75 55 -253
74 -290 27 -52 67 -85 145 -121 102 -47 122 -63 130 -106 17 -82 4 -143 -39
-189 l-34 -37 4 -86 c5 -97 22 -183 58 -289 14 -40 28 -91 31 -114 4 -22 12
-57 18 -77 l13 -36 67 2 67 2 2 -32 c3 -57 -9 -183 -18 -199 -2 -3 -7 -44 -10
-90 -6 -82 -6 -84 36 -178 38 -84 43 -104 45 -175 1 -73 5 -89 46 -173 25 -51
43 -94 40 -96 -3 -2 -34 -9 -68 -16 -74 -15 -80 -30 -33 -88 33 -42 32 -74 -4
-104 -37 -32 -200 -105 -302 -137 -188 -58 -282 -158 -334 -355 -34 -128 -93
-221 -184 -288 -36 -26 -40 -33 -43 -78 -5 -92 -17 -104 -187 -180 -39 -17
-86 -33 -105 -36 -35 -6 -111 13 -111 27 0 4 -6 9 -14 12 -13 5 -13 0 0 -41 7
-26 14 -50 14 -54 0 -4 -25 4 -55 19 -63 31 -74 54 -57 117 6 23 9 43 6 45 -4
4 -180 40 -201 40 -8 1 -10 -12 -7 -43 5 -38 3 -46 -16 -56 -36 -19 -66 -4
-99 50 -19 31 -45 57 -69 69 l-40 20 -17 -46 -18 -47 27 -50 c35 -66 64 -87
123 -87 65 -1 105 -14 122 -41 8 -13 34 -62 58 -110 33 -67 51 -91 80 -109 61
-38 103 -81 129 -132 30 -58 201 -242 370 -397 67 -62 124 -133 154 -192 7
-16 17 -28 21 -28 5 0 48 -25 96 -57 129 -83 239 -146 317 -183 96 -44 494
-177 590 -196 138 -28 408 -1 528 54 24 11 67 41 97 66 29 26 70 54 90 63 37
16 157 21 216 9 160 -33 207 -29 340 28 165 72 382 182 430 218 172 129 295
270 441 505 131 210 141 318 55 566 -44 126 -66 240 -51 266 6 12 34 40 63 62
121 95 145 167 97 289 -11 28 -20 52 -20 54 0 2 30 10 66 17 36 7 68 19 71 26
8 19 -24 222 -53 343 -13 58 -27 115 -29 126 -4 18 3 24 40 38 25 9 65 23 89
32 78 28 69 45 -65 110 -105 53 -119 62 -124 89 -6 26 -17 35 -91 69 -46 22
-84 43 -84 46 0 4 22 17 50 28 l50 21 -24 50 c-35 75 -74 128 -104 139 -130
49 -137 48 -148 -21 -4 -20 -10 -39 -13 -41 -4 -3 -27 5 -53 16 -45 19 -46 20
-37 51 32 108 -9 168 -125 181 -52 5 -146 36 -146 47 0 4 16 24 35 45 64 72
55 77 -155 89 -63 3 -131 8 -150 10 -19 2 -70 7 -113 10 -87 6 -141 24 -155
52 -13 25 -16 313 -4 313 6 0 30 -11 53 -25 24 -14 49 -25 55 -25 6 0 19 17
28 39 14 30 16 45 8 75 -17 58 13 120 74 154 13 7 17 31 19 128 2 65 8 131 14
146 13 34 6 101 -14 132 -39 59 -143 109 -206 100 -47 -7 -118 -42 -143 -71
-20 -23 -21 -36 -23 -376 -2 -379 -7 -420 -56 -445 -22 -11 -218 -66 -270 -76
-15 -3 -35 -7 -45 -10 -58 -18 -98 -15 -137 11 -36 24 -52 27 -160 33 -172 8
-174 10 -179 160 -4 137 -52 213 -175 279 -68 36 -92 64 -128 154 -14 34 -32
70 -41 81 -21 23 -65 46 -89 46 -11 0 -30 18 -46 42 l-27 42 64 34 c73 38 105
78 131 163 23 74 29 241 11 300 -8 25 -19 82 -26 125 -6 44 -13 95 -16 114 -3
19 -7 80 -9 135 -7 162 -83 460 -160 624 -65 137 -135 231 -218 294 -73 56
-176 77 -271 55z m1267 -3861 c31 -36 38 -50 29 -59 -9 -9 -29 -2 -86 28 -41
21 -75 44 -75 49 -1 11 57 35 78 32 8 -1 32 -23 54 -50z m1049 -429 c-4 -3
-37 -15 -74 -26 -87 -26 -96 -11 -45 75 l19 33 53 -38 c29 -20 50 -40 47 -44z
m-492 48 c32 -14 39 -63 13 -94 -30 -37 -135 -32 -216 10 l-39 20 23 16 c13 9
26 19 29 22 30 35 63 48 113 43 29 -3 63 -10 77 -17z m220 -452 c0 -108 -4
-193 -10 -205 -15 -28 -60 -47 -90 -39 -57 17 -179 79 -188 97 -13 24 26 140
62 188 15 19 48 49 73 67 46 31 131 76 146 77 4 1 7 -83 7 -185z"/>
<path d="M5357 6355 c-25 -6 -54 -18 -64 -25 -73 -56 -159 -196 -208 -340 -13
-38 -22 -70 -20 -70 3 0 1 -10 -4 -23 -5 -13 -12 -48 -16 -78 -4 -30 -9 -65
-10 -79 -2 -14 -4 -86 -6 -160 -2 -127 -11 -277 -24 -380 -19 -163 -19 -177 6
-193 13 -8 60 -18 104 -21 44 -4 94 -9 110 -11 67 -11 118 -6 144 12 34 25 58
76 63 133 6 61 30 107 97 187 123 147 149 210 185 453 3 19 8 46 10 60 31 185
31 193 1 320 -14 63 -108 165 -182 200 -53 25 -125 30 -186 15z"/>
<path d="M6573 4840 c-100 -24 -286 -178 -331 -273 -53 -113 -86 -339 -63
-434 12 -49 15 -56 72 -181 l33 -74 55 7 c122 13 138 17 186 42 42 21 212 137
265 179 94 76 98 82 108 179 21 208 -11 359 -97 456 -70 79 -157 117 -228 99z"/>
<path d="M5038 4743 l-14 -48 -58 3 -57 4 4 -74 c10 -149 22 -165 167 -237 87
-43 97 -46 120 -34 14 7 35 13 48 13 31 0 67 41 70 80 1 17 3 34 4 38 1 4 -1
28 -6 54 -9 59 -46 98 -173 186 l-92 62 -13 -47z"/>
<path d="M4846 4278 c-32 -93 -35 -138 -12 -173 21 -32 94 -85 116 -85 9 0 51
-18 93 -40 l76 -39 21 27 c12 15 41 48 65 73 42 45 44 48 33 82 -14 46 4 76
63 104 l43 20 -50 23 c-34 16 -65 23 -104 22 -68 -2 -144 12 -233 44 -38 13
-71 24 -75 24 -4 0 -20 -37 -36 -82z"/>
<path d="M4914 3949 c-10 -17 -9 -138 2 -149 12 -12 25 -3 52 37 29 41 28 53
-6 91 -31 35 -37 38 -48 21z"/>
<path d="M6114 3898 c-11 -13 -29 -42 -39 -66 -10 -24 -32 -55 -49 -69 -32
-27 -30 -27 -182 -8 -41 5 -42 4 -129 -86 -47 -50 -83 -95 -78 -100 4 -4 24
-11 43 -14 88 -15 145 -87 167 -210 3 -16 11 -41 17 -54 l13 -23 23 38 c13 22
64 100 113 174 l89 135 -22 41 c-31 60 -24 93 25 120 51 28 85 63 85 87 0 17
-35 56 -51 57 -3 0 -14 -10 -25 -22z"/>
<path d="M5615 3473 c-27 -7 -35 -21 -35 -66 l0 -38 60 41 c68 46 78 71 28 69
-18 -1 -42 -4 -53 -6z"/>
<path d="M5643 3249 c-41 -12 -63 -44 -63 -90 0 -89 71 -66 86 27 3 20 7 45 9
55 2 11 3 19 2 18 -1 0 -16 -5 -34 -10z"/>
<path d="M354 3174 c-80 -20 -146 -52 -138 -66 4 -7 -9 -2 -30 10 l-37 22 -26
-57 c-33 -72 -35 -123 -5 -160 12 -16 40 -64 61 -108 123 -250 292 -499 414
-612 105 -97 286 -149 400 -116 45 13 47 15 48 51 0 20 2 53 5 72 10 88 10
130 0 130 -6 -1 -22 -7 -36 -15 -34 -20 -46 -19 -28 3 26 29 41 91 35 144 -7
57 -40 118 -90 167 -32 32 -35 39 -35 95 0 63 -20 128 -56 181 -73 109 -274
246 -385 264 -31 5 -66 3 -97 -5z"/>
</g>
</svg>
