<svg xmlns="http://www.w3.org/2000/svg" xmlns:xlink="http://www.w3.org/1999/xlink" viewBox="0 0 260 260"><defs><style>.cls-1{fill:url(#linear-gradient);}.cls-2{fill:url(#linear-gradient-2);}.cls-3{fill:#00423f;}.cls-4{fill:#009b93;}.cls-5{fill:url(#linear-gradient-3);}.cls-6{fill:url(#linear-gradient-4);}.cls-7{fill:url(#linear-gradient-5);}.cls-8{fill:url(#linear-gradient-6);}.cls-9{fill:#16323d;}</style><linearGradient id="linear-gradient" x1="53.15" y1="176.55" x2="206.49" y2="176.55" gradientUnits="userSpaceOnUse"><stop offset="0" stop-color="#5a7f95"/><stop offset="0.56" stop-color="#28596d"/><stop offset="1" stop-color="#5a7f95"/></linearGradient><linearGradient id="linear-gradient-2" x1="129.82" y1="176.55" x2="206.49" y2="176.55" gradientUnits="userSpaceOnUse"><stop offset="0" stop-color="#5a7f95"/><stop offset="1" stop-color="#28596d"/></linearGradient><linearGradient id="linear-gradient-3" x1="191.5" y1="27.46" x2="130" y2="27.46" gradientUnits="userSpaceOnUse"><stop offset="0" stop-color="#31e1aa"/><stop offset="1" stop-color="#00e3e5"/></linearGradient><linearGradient id="linear-gradient-4" x1="68.5" y1="27.46" x2="130" y2="27.46" gradientUnits="userSpaceOnUse"><stop offset="0" stop-color="#00e3e5"/><stop offset="1" stop-color="#00bcb7"/></linearGradient><linearGradient id="linear-gradient-5" x1="223.69" y1="97.93" x2="129.82" y2="97.93" xlink:href="#linear-gradient-3"/><linearGradient id="linear-gradient-6" x1="36.31" y1="97.93" y2="97.93" xlink:href="#linear-gradient-4"/></defs><title>leavingharbor-mark</title><g id="Ship_Body" data-name="Ship Body"><polygon class="cls-1" points="82.44 260 53.15 170.03 129.82 93.11 206.49 169.99 177.21 260 82.44 260"/><polyline class="cls-2" points="129.82 93.11 206.49 169.99 177.21 260 130 260"/><polyline class="cls-3" points="130 0 78.98 0 68.5 54.91 130 49.62"/><polyline class="cls-4" points="130 49.62 191.5 54.91 181.02 0 130 0"/><polyline class="cls-5" points="130 44.33 191.5 54.91 181.02 0 130 0"/><polyline class="cls-6" points="130 0 78.98 0 68.5 54.91 130 44.33"/><polyline class="cls-4" points="129.64 86.54 190.21 140.6 223.28 140.6 207.31 66.5 129.34 55.26"/><polyline class="cls-3" points="129.82 86.54 69.38 140.6 36.31 140.6 52.28 66.5 130 55.26"/><polyline class="cls-7" points="130 55.26 207.72 59.89 223.69 140.6 190.27 140.6 129.82 79.92"/><polyline class="cls-8" points="129.82 79.92 69.38 140.6 36.31 140.6 52.28 59.89 130 55.26"/><polygon class="cls-9" points="82.44 260 177.21 260 129.82 244.12 82.44 260"/></g></svg>