<svg id="Layer_1" data-name="Layer 1" xmlns="http://www.w3.org/2000/svg" viewBox="0 0 399.86 399.61"><defs><style>.cls-1{fill:#fff;}</style></defs><title>Hand - Square</title><g id="_9FPzWm.tif" data-name="9FPzWm.tif"><path d="M235.3,103.24c-10-2-16.62-15.37-16.58-22s1.4-13.08,1.94-19.63c.38-4.59,1-9.29.38-13.79-1.9-14.26,2.21-27.24,8.76-39.33,5.3-9.79,19.07-10,25.42-.88,2.62,3.77,5.07,8.29,5.64,12.72,1.51,11.64,1.75,23.41-3.46,34.48-1,2.1-2.54,4-3.17,6.21-1.35,4.7-3,9.49-3.21,14.3-.36,9.92-.43,19.61-10.9,24.35l-5.44-3.61-1.17,1.38C234.05,99.17,234.58,100.9,235.3,103.24Z"/><path d="M328.72,56.12c-1.73,9.91-2.6,20.14-5.56,29.73-1.67,5.4-6.93,9.64-10.32,14.58-1.26,1.84-2.56,4.18-2.54,6.28.05,7.32-3.91,10.51-11.25,9-3.63-.77-7.44-.62-11.13-1.16-3.05-.44-3.05-2.29-2.73-5.16,1.07-9.42,2.16-18.92,2.08-28.38-.12-14.78,2.79-28.41,12.23-40.08,2.86-3.54,6-4.72,11.56-4.62,7,.12,9.82,4.61,13.48,7.77C327.22,46.33,327.31,51.64,328.72,56.12Z"/><path d="M12.06,221.39c2.76-1.07,5.44-2.49,8.3-3.12a14.69,14.69,0,0,1,8.53.49,84.25,84.25,0,0,1,8.1,4.41,73.18,73.18,0,0,1,7.82,6.39c4.84,4.36,7.64,12.94,5.68,17,8.31,6.72,10.07,14.66,4.89,21.45l4.93-2.37c-.32,4.18-.65,8.48-1.06,13.81-5.61,4-19.72.37-25.61-5.65C23.49,263.38,16.3,250.94,9.75,238.11c-.52-1-.52-2.53-1.29-3.2-5.57-4.78-2.38-9.36.06-14.52l3.85,2.42Z"/><path d="M358.88,178.15c-2.32-5.78-5.68-11.05-6.31-16.62-.67-5.91.85-12.55,2.24-18.09,2.3-9.18,10.55-15.6,19.18-19.73,6.3-3,15.36,3.44,18,10.5,3.11,8.32,3,16.54,1.39,25a5.06,5.06,0,0,1-1.63,3c-6.39,4.71-12.58,9.83-19.48,13.64C368.67,177.79,363.76,177.39,358.88,178.15Z"/><path d="M348.61,193c-4.34,6.68-8.52,13.11-13.28,20.46-2.32-7-1.7-16.83-14.32-17.37,4.18-4.48,6.88-7.88,10.14-10.61,1.06-.88,3.69-.33,5.44.15,5.87,1.64,9.13-.23,10.89-6,.48-1.57,2.17-2.76,3.31-4.13,1.08,1.14,3.2,2.51,3,3.36a6.73,6.73,0,0,1-3.23,4.29C345,185.46,344.56,186.69,348.61,193Z"/><path d="M278.67,150.38c7.06,2.7,12.59,5.14,19.14,4,1.7-.3,3.75,1.36,7.43,2.85-6.14,2.13-8.05,4.73-5.22,8.72l-7.79,8.69c-3.79-1.91-6.18-3.75-8.83-4.3-4.28-.89-9-5.34-8.25-9.37C275.87,157.24,277.52,153.71,278.67,150.38Z"/><path d="M280.43,131l6.38,1.06,1.78-5.87c4.8,3.45,9.59,6,13.14,9.76,2.27,2.38,2.82,6.06,2,10.23-1.08,5.83-6.71,3-7.93,5.52-3.93-1.9-7.61-3.33-10.89-5.4a9.17,9.17,0,0,1-3.73-5C280.48,138.25,280.68,135,280.43,131Z"/><path d="M280.28,182.14v-7.79l1.32-.87c1.26,1.52,3.59,3.1,3.5,4.54-.1,1.83-2.17,3.55-3.39,5.31Z"/><path d="M324.36,213.79a53.48,53.48,0,0,1-1.29,6.59c-.32,1-1.42,1.71-2.17,2.54-.75-.7-2-1.31-2.15-2.12C318,216.77,319.49,214.2,324.36,213.79Z"/><path d="M325.8,202.5l-7.15,4.92c.27-2.5-.1-5.09.72-5.56,1.71-1,4.06-.8,6.14-1.1C325.61,201.34,325.7,201.92,325.8,202.5Z"/><path class="cls-1" d="M276.7,206.56c-3.87,1.38-7.84,2.28-3.63,7-5.8.9-8-3.39-10.5-6.74-.25-.33,1.87-3,3.3-3.94C270.38,199.88,273.37,202.62,276.7,206.56Z"/><path d="M319,238.09c-4.19-2.12-8.39-4.24-13.5-6.84,0-.28-.28-2.17-.4-3.11l-10.39-4.82,6.32-2.94c-1.78-3.29-2.95-7.22-5.53-9.66-2.14-2-5.94-2.29-9.36-3.46-.64,2.32-1.16,4.22-1.77,6.45l-5.52-2.78c3.09-7.9.55-11.48-7.75-12-2.56-.18-5-1.54-7.73-2.43,2.36-2.52,3.68-3.87,4.84-5.35.07-.09-1.12-1.71-1.8-1.76-9.44-.77-18.92-1.24-28.35-2.15-1.89-.19-5.1-1.77-5.2-2.93-.53-6-.25-12.16-.25-18.07l6.74,3.76c.78-1.86,2.62-4.08,2.14-5.51-1.71-5-.16-8,4.29-10.42.78-.41.62-2.77.72-4.24.24-3.61-.36-7.47.73-10.78,1.51-4.55.14-7.88-3-10.43-4.14-3.38-8.84-4.67-14.13-1.8-3.85,2.08-6.57,4.18-4.49,9.12.47,1.11-.23,2.68-.25,4-.09,6.23-.06,12.45-.23,18.67-.14,5.43.81,11.45-1.27,16.06-1.2,2.67-7.38,3.24-11.41,4.46-3.54,1.07-7.2,1.8-10.84,2.53-1.31.27-3.28.7-4,0-4.72-4.54-10.64-2.45-16-3.19-3.62-.51-5.13-2.11-4.63-5.89,1.23-9.2-3.11-16.16-11.56-19.63-1.6-.66-2.95-2.4-4-3.94-2.74-4.17-2.13-10.94-9.68-11.41-1.35-.08-2.51-3.13-3.76-4.81,1.52-.77,3.06-1.52,4.56-2.34a20.93,20.93,0,0,0,2.39-1.57c4.86-3.7,6.85-17.36,4.85-24.15-1.92-6.56-2.32-13.57-3.2-20.41-.27-2.11.53-4.4.06-6.42-3-13.07-5.51-26.57-13-37.88-4.89-7.41-11.23-14.38-22.21-12.85-4.27.59-7.21,2.2-8.49,6-3.56,10.51-2.72,20.47,2.24,30.76,4.46,9.26,7.31,19.37,10.18,29.3,1.66,5.72,1.83,11.85,2.9,17.75a115,115,0,0,0,3.41,15.32,13.64,13.64,0,0,0,5,6.37c2.88,2.05,6.56,2.95,9.61,4.81,3.46,2.11,3.2,11.92-.08,14.15-.88.61-2.15,1.62-2.13,2.4a79.2,79.2,0,0,0,1.15,13c1,4.88,3.29,9.51,4.12,14.41,1.35,7.88,1,7.93,9.24,6,.18,2.13.69,4.2.48,6.18-.53,4.9-1.76,9.74-2,14.64-.41,7.51,7.86,13.37,4.42,21.63-.13.31.61.94.86,1.47,1.57,3.37,3.13,6.76,4.88,10.54l-8,1.4c.28,1.32.17,2.6.73,3.08,4.69,4,2.44,6.89-1.6,8.91-4.79,2.41-9.72,5-14.88,6.1-8.65,1.83-16.68,9.31-18.72,19.46-1.46,7.32-5.45,14.45-13,18.79,0,8.06-1.41,9.65-7.88,11.79-5.25,1.74-9.69,7.06-17,.59,1.1,3.63,1.5,4.92,2,6.59-8.31-3.7-8.31-3.7-5.93-11l-12.7-2.46c.33,2.11.61,3.87.84,5.3-5.17,3.25-6-.53-7.84-3.72-.93-1.65-3.41-2.42-5.19-3.58-.71,2-2.5,4.42-1.92,5.94,1.59,4.19,4,8.06,9.77,7.36,1.64-.2,4.3.34,5,1.48,2.62,4.14,4.62,8.67,6.37,12.09,2.67,1.77,5,2.87,6.67,4.55,1.42,1.41,2.17,3.49,3.16,5.3,2.18,3.95,6.43,6.35,8.72,9.6,6,8.6,16.59,13,20.68,23.17.3.76,1.48,1.2,2.3,1.72,10,6.36,19.8,13.22,31.36,16.75,8.48,2.6,16.76,6.12,25.4,7.88,5.79,1.18,12.19.69,18.1-.31,5.56-.94,12.48-2,15.87-5.73,6.41-7,13.09-6,20.67-4.73,3.8.62,8.23,1.74,11.5.43,9.74-3.89,19.48-8.13,28.4-13.58,13.42-8.21,22-21.28,29.94-34.41,4.77-7.9,4.93-16.75,1.22-25.66-2.08-5-3.17-10.45-4.23-15.79-.23-1.16,1.24-3.16,2.46-4,9.58-6.71,10.77-10.38,5.92-21l8.36-1.79c-.68-5.06-1.11-9.77-2-14.39-1-5-2.34-9.88-3.38-14.15l10.25-3.55C318.78,239.55,318.88,238.82,319,238.09ZM193.18,252l-9.72-5.18c3-1,5.17-2.41,5.9-1.87,2,1.51,3.39,3.84,5,5.84Zm17.16,21.3,6.18-4.89a51.24,51.24,0,0,1,6.4.74c1.11.26,2.87,1.25,2.9,2,.05,1.52-.39,3.56-1.43,4.51C222.13,277.73,213.14,276,210.34,273.33Zm26.11,31.43v.29a4.65,4.65,0,0,1-6.55,4.24l-.25-.12h0L227.12,308l-1.66-.76c-1.42-.66-2.83-1.32-4.22-2-.83-.41-1.82-2.08-1.6-2.81,1-3.23,1.9-6.71,3.86-9.34s4.9-4.16,7.58-6c1.39-.93,3.11-1.38,5.37-2.34ZM244,275l-.81-1.54c.86-1.64,1.72-3.28,3-5.8l6.51,4.78Zm29.12-61.38c-5.8.9-8-3.39-10.5-6.74-.25-.33,1.87-3,3.3-3.94,4.51-3,7.5-.27,10.83,3.67C272.83,207.94,268.86,208.84,273.07,213.57Z"/></g></svg>