<svg id="Layer_1" data-name="Layer 1" xmlns="http://www.w3.org/2000/svg" viewBox="0 0 426.86 156.61"><defs><style>.cls-1{fill:#2e3037;}</style></defs><title>matt-haliski-logo</title><path class="cls-1" d="M1746.09,629h47.6L1841,696.07,1889.68,629h46.27v89.9h-36.43V658.93l-43.34,59.93h-30.85l-43.61-59.81v59.81h-35.63V629Z" transform="translate(-1713.17 -595.59)"/><path class="cls-1" d="M1952.16,629h39.62v34.75H2067V629h39.62v89.9H2067V681.09h-75.25v37.77h-39.62V629Z" transform="translate(-1713.17 -595.59)"/><path class="cls-1" d="M1726,752.2a12.86,12.86,0,0,1-12.85-12.85V608.44A12.86,12.86,0,0,1,1726,595.59h401.16A12.86,12.86,0,0,1,2140,608.44V739.35a12.86,12.86,0,0,1-12.85,12.85H1726ZM1726,607a1.48,1.48,0,0,0-1.48,1.48V739.35a1.48,1.48,0,0,0,1.48,1.48h401.16a1.48,1.48,0,0,0,1.48-1.48V608.44a1.48,1.48,0,0,0-1.48-1.48H1726Z" transform="translate(-1713.17 -595.59)"/><path class="cls-1" d="M2127.19,749.2H1726a9.86,9.86,0,0,1-9.85-9.85V608.44a9.86,9.86,0,0,1,9.85-9.85h401.16a9.86,9.86,0,0,1,9.85,9.85V739.35A9.86,9.86,0,0,1,2127.19,749.2ZM1726,604a4.48,4.48,0,0,0-4.48,4.48V739.35a4.48,4.48,0,0,0,4.48,4.48h401.16a4.48,4.48,0,0,0,4.48-4.48V608.44a4.48,4.48,0,0,0-4.48-4.48H1726Z" transform="translate(-1713.17 -595.59)"/></svg>