<svg id="Layer_1" data-name="Layer 1" xmlns="http://www.w3.org/2000/svg" viewBox="0 0 420.86 150.61"><defs><style>.cls-1{fill:#2e3037;}</style></defs><title>matt-haliski-logo</title><path class="cls-1" d="M1746.09,632h47.6L1841,699.07,1889.68,632h46.27v89.9h-36.43V661.93l-43.34,59.93h-30.85l-43.61-59.81v59.81h-35.63V632Z" transform="translate(-1716.17 -601.59)"/><path class="cls-1" d="M1952.16,632h39.62v34.75H2067V632h39.62v89.9H2067V684.09h-75.25v37.77h-39.62V632Z" transform="translate(-1716.17 -601.59)"/><path class="cls-1" d="M2127.19,752.2H1726a9.86,9.86,0,0,1-9.85-9.85V611.44a9.86,9.86,0,0,1,9.85-9.85h401.16a9.86,9.86,0,0,1,9.85,9.85V742.35A9.86,9.86,0,0,1,2127.19,752.2ZM1726,607a4.48,4.48,0,0,0-4.48,4.48V742.35a4.48,4.48,0,0,0,4.48,4.48h401.16a4.48,4.48,0,0,0,4.48-4.48V611.44a4.48,4.48,0,0,0-4.48-4.48H1726Z" transform="translate(-1716.17 -601.59)"/></svg>